solid CATIA STL
  facet normal  0.000000e+000  0.000000e+000  1.000000e+000
    outer loop
      vertex -1.448889e+001 -4.132286e+000  3.000000e+000
      vertex -7.147268e+000 -2.165105e+000  3.000000e+000
      vertex -7.727407e+000 -1.700000e+000  3.000000e+000
    endloop
  endfacet
  facet normal  0.000000e+000  0.000000e+000  9.999999e-001
    outer loop
      vertex -1.448889e+001 -4.132286e+000  3.000000e+000
      vertex -7.727407e+000 -1.700000e+000  3.000000e+000
      vertex -8.929488e+000 -1.202082e+000  3.000000e+000
    endloop
  endfacet
  facet normal  0.000000e+000  0.000000e+000  1.000000e+000
    outer loop
      vertex -1.448889e+001 -4.132286e+000  3.000000e+000
      vertex -8.929488e+000 -1.202082e+000  3.000000e+000
      vertex -9.427406e+000 -2.061960e-014  3.000000e+000
    endloop
  endfacet
  facet normal  0.000000e+000  -0.000000e+000  1.000000e+000
    outer loop
      vertex -1.448889e+001 -4.132286e+000  3.000000e+000
      vertex -9.427406e+000 -2.061960e-014  3.000000e+000
      vertex -8.929488e+000  1.202082e+000  3.000000e+000
    endloop
  endfacet
  facet normal  0.000000e+000  0.000000e+000  9.999999e-001
    outer loop
      vertex -1.448889e+001 -4.132286e+000  3.000000e+000
      vertex -8.929488e+000  1.202082e+000  3.000000e+000
      vertex -1.448889e+001  4.132286e+000  3.000000e+000
    endloop
  endfacet
  facet normal  0.000000e+000  -0.000000e+000  1.000000e+000
    outer loop
      vertex -7.727407e+000 -1.700000e+000  3.000000e+000
      vertex -7.147268e+000 -2.165105e+000  3.000000e+000
      vertex -6.525325e+000 -1.202082e+000  3.000000e+000
    endloop
  endfacet
  facet normal  0.000000e+000  0.000000e+000  1.000000e+000
    outer loop
      vertex -6.525325e+000 -1.202082e+000  3.000000e+000
      vertex -7.147268e+000 -2.165105e+000  3.000000e+000
      vertex -5.949120e+000 -1.364527e+000  3.000000e+000
    endloop
  endfacet
  facet normal  0.000000e+000  0.000000e+000  9.999999e-001
    outer loop
      vertex -6.525325e+000 -1.202082e+000  3.000000e+000
      vertex -5.949120e+000 -1.364527e+000  3.000000e+000
      vertex -6.027407e+000 -4.440892e-016  3.000000e+000
    endloop
  endfacet
  facet normal  0.000000e+000  0.000000e+000  1.000000e+000
    outer loop
      vertex -6.027407e+000 -4.440892e-016  3.000000e+000
      vertex -5.949120e+000 -1.364527e+000  3.000000e+000
      vertex -5.485925e+000 -4.101700e-015  3.000000e+000
    endloop
  endfacet
  facet normal  0.000000e+000  0.000000e+000  1.000000e+000
    outer loop
      vertex -6.027407e+000 -4.440892e-016  3.000000e+000
      vertex -5.485925e+000 -4.101700e-015  3.000000e+000
      vertex -6.525325e+000  1.202082e+000  3.000000e+000
    endloop
  endfacet
  facet normal  -0.000000e+000  0.000000e+000  1.000000e+000
    outer loop
      vertex -6.525325e+000  1.202082e+000  3.000000e+000
      vertex -5.485925e+000 -4.101700e-015  3.000000e+000
      vertex -5.949120e+000  1.364527e+000  3.000000e+000
    endloop
  endfacet
  facet normal  0.000000e+000  0.000000e+000  1.000000e+000
    outer loop
      vertex -6.525325e+000  1.202082e+000  3.000000e+000
      vertex -5.949120e+000  1.364527e+000  3.000000e+000
      vertex -7.727407e+000  1.700000e+000  3.000000e+000
    endloop
  endfacet
  facet normal  -0.000000e+000  0.000000e+000  1.000000e+000
    outer loop
      vertex -7.727407e+000  1.700000e+000  3.000000e+000
      vertex -5.949120e+000  1.364527e+000  3.000000e+000
      vertex -7.147268e+000  2.165105e+000  3.000000e+000
    endloop
  endfacet
  facet normal  0.000000e+000  0.000000e+000  1.000000e+000
    outer loop
      vertex -7.727407e+000  1.700000e+000  3.000000e+000
      vertex -7.147268e+000  2.165105e+000  3.000000e+000
      vertex -8.929488e+000  1.202082e+000  3.000000e+000
    endloop
  endfacet
  facet normal  0.000000e+000  -0.000000e+000  9.999999e-001
    outer loop
      vertex -8.929488e+000  1.202082e+000  3.000000e+000
      vertex -7.147268e+000  2.165105e+000  3.000000e+000
      vertex -1.448889e+001  4.132286e+000  3.000000e+000
    endloop
  endfacet
  facet normal  -0.000000e+000  0.000000e+000  1.000000e+000
    outer loop
      vertex -1.448889e+001  4.378466e+000  6.000000e+000
      vertex -1.448889e+001  4.132286e+000  6.000000e+000
      vertex -1.790953e-001  3.126521e+000  6.000000e+000
    endloop
  endfacet
  facet normal  0.000000e+000  0.000000e+000  1.000000e+000
    outer loop
      vertex -1.790953e-001  3.126521e+000  6.000000e+000
      vertex -1.448889e+001  4.132286e+000  6.000000e+000
      vertex -7.147268e+000  2.165105e+000  6.000000e+000
    endloop
  endfacet
  facet normal  0.000000e+000  0.000000e+000  1.000000e+000
    outer loop
      vertex -1.790953e-001  3.126521e+000  6.000000e+000
      vertex -7.147268e+000  2.165105e+000  6.000000e+000
      vertex -7.820488e-001  2.272247e+000  6.000000e+000
    endloop
  endfacet
  facet normal  -0.000000e+000  0.000000e+000  9.999999e-001
    outer loop
      vertex -7.820488e-001  2.272247e+000  6.000000e+000
      vertex -7.147268e+000  2.165105e+000  6.000000e+000
      vertex -1.384408e+000  1.053646e-001  6.000000e+000
    endloop
  endfacet
  facet normal  0.000000e+000  0.000000e+000  1.000000e+000
    outer loop
      vertex -1.384408e+000  1.053646e-001  6.000000e+000
      vertex -7.147268e+000  2.165105e+000  6.000000e+000
      vertex -5.949120e+000  1.364527e+000  6.000000e+000
    endloop
  endfacet
  facet normal  0.000000e+000  0.000000e+000  1.000000e+000
    outer loop
      vertex -1.384408e+000  1.053646e-001  6.000000e+000
      vertex -5.949120e+000  1.364527e+000  6.000000e+000
      vertex -5.485925e+000 -4.101700e-015  6.000000e+000
    endloop
  endfacet
  facet normal  -0.000000e+000  0.000000e+000  1.000000e+000
    outer loop
      vertex -1.384408e+000  1.053646e-001  6.000000e+000
      vertex -5.485925e+000 -4.101700e-015  6.000000e+000
      vertex -7.438195e-001 -2.339170e+000  6.000000e+000
    endloop
  endfacet
  facet normal  0.000000e+000  0.000000e+000  1.000000e+000
    outer loop
      vertex -7.438195e-001 -2.339170e+000  6.000000e+000
      vertex -5.485925e+000 -4.101700e-015  6.000000e+000
      vertex -5.949120e+000 -1.364527e+000  6.000000e+000
    endloop
  endfacet
  facet normal  0.000000e+000  0.000000e+000  1.000000e+000
    outer loop
      vertex -7.438195e-001 -2.339170e+000  6.000000e+000
      vertex -5.949120e+000 -1.364527e+000  6.000000e+000
      vertex -7.147268e+000 -2.165105e+000  6.000000e+000
    endloop
  endfacet
  facet normal  0.000000e+000  0.000000e+000  1.000000e+000
    outer loop
      vertex -7.438195e-001 -2.339170e+000  6.000000e+000
      vertex -7.147268e+000 -2.165105e+000  6.000000e+000
      vertex -1.790778e-001 -3.126520e+000  6.000000e+000
    endloop
  endfacet
  facet normal  0.000000e+000  0.000000e+000  9.999999e-001
    outer loop
      vertex -1.790778e-001 -3.126520e+000  6.000000e+000
      vertex -7.147268e+000 -2.165105e+000  6.000000e+000
      vertex -1.448889e+001 -4.132286e+000  6.000000e+000
    endloop
  endfacet
  facet normal  -0.000000e+000  0.000000e+000  1.000000e+000
    outer loop
      vertex -1.790778e-001 -3.126520e+000  6.000000e+000
      vertex -1.448889e+001 -4.132286e+000  6.000000e+000
      vertex -1.448889e+001 -4.378466e+000  6.000000e+000
    endloop
  endfacet
  facet normal -2.588190e-001 -9.659259e-001  0.000000e+000
    outer loop
      vertex -1.448889e+001  4.132286e+000  3.000000e+000
      vertex -7.147268e+000  2.165105e+000  3.000000e+000
      vertex -1.448889e+001  4.132286e+000  6.000000e+000
    endloop
  endfacet
  facet normal -2.588190e-001 -9.659259e-001  0.000000e+000
    outer loop
      vertex -1.448889e+001  4.132286e+000  6.000000e+000
      vertex -7.147268e+000  2.165105e+000  3.000000e+000
      vertex -7.147268e+000  2.165105e+000  6.000000e+000
    endloop
  endfacet
  facet normal -9.469300e-001 -3.214396e-001  -0.000000e+000
    outer loop
      vertex -5.485925e+000 -4.101700e-015  3.000000e+000
      vertex -5.949120e+000  1.364527e+000  6.000000e+000
      vertex -5.949120e+000  1.364527e+000  3.000000e+000
    endloop
  endfacet
  facet normal -5.555704e-001 -8.314695e-001  0.000000e+000
    outer loop
      vertex -5.949120e+000  1.364527e+000  3.000000e+000
      vertex -5.949120e+000  1.364527e+000  6.000000e+000
      vertex -7.147268e+000  2.165105e+000  6.000000e+000
    endloop
  endfacet
  facet normal -5.555704e-001 -8.314695e-001  -0.000000e+000
    outer loop
      vertex -5.949120e+000  1.364527e+000  3.000000e+000
      vertex -7.147268e+000  2.165105e+000  6.000000e+000
      vertex -7.147268e+000  2.165105e+000  3.000000e+000
    endloop
  endfacet
  facet normal -9.469300e-001 -3.214396e-001  0.000000e+000
    outer loop
      vertex -5.949120e+000  1.364527e+000  6.000000e+000
      vertex -5.485925e+000 -4.101700e-015  3.000000e+000
      vertex -5.485925e+000 -4.101700e-015  6.000000e+000
    endloop
  endfacet
  facet normal -9.469300e-001  3.214396e-001  0.000000e+000
    outer loop
      vertex -5.485925e+000 -4.101700e-015  6.000000e+000
      vertex -5.485925e+000 -4.101700e-015  3.000000e+000
      vertex -5.949120e+000 -1.364527e+000  3.000000e+000
    endloop
  endfacet
  facet normal -9.469300e-001  3.214396e-001  0.000000e+000
    outer loop
      vertex -5.485925e+000 -4.101700e-015  6.000000e+000
      vertex -5.949120e+000 -1.364527e+000  3.000000e+000
      vertex -5.949120e+000 -1.364527e+000  6.000000e+000
    endloop
  endfacet
  facet normal -5.555704e-001  8.314695e-001  0.000000e+000
    outer loop
      vertex -5.949120e+000 -1.364527e+000  6.000000e+000
      vertex -5.949120e+000 -1.364527e+000  3.000000e+000
      vertex -7.147268e+000 -2.165105e+000  3.000000e+000
    endloop
  endfacet
  facet normal -5.555704e-001  8.314695e-001  0.000000e+000
    outer loop
      vertex -5.949120e+000 -1.364527e+000  6.000000e+000
      vertex -7.147268e+000 -2.165105e+000  3.000000e+000
      vertex -7.147268e+000 -2.165105e+000  6.000000e+000
    endloop
  endfacet
  facet normal -2.588190e-001  9.659259e-001  0.000000e+000
    outer loop
      vertex -1.448889e+001 -4.132286e+000  3.000000e+000
      vertex -1.448889e+001 -4.132286e+000  6.000000e+000
      vertex -7.147268e+000 -2.165105e+000  3.000000e+000
    endloop
  endfacet
  facet normal -2.588190e-001  9.659259e-001  0.000000e+000
    outer loop
      vertex -7.147268e+000 -2.165105e+000  3.000000e+000
      vertex -1.448889e+001 -4.132286e+000  6.000000e+000
      vertex -7.147268e+000 -2.165105e+000  6.000000e+000
    endloop
  endfacet
  facet normal -3.826835e-001  9.238794e-001  0.000000e+000
    outer loop
      vertex -7.727407e+000 -1.700000e+000  0.000000e+000
      vertex -6.525325e+000 -1.202082e+000  3.000000e+000
      vertex -6.525325e+000 -1.202082e+000  0.000000e+000
    endloop
  endfacet
  facet normal -9.238795e-001  3.826835e-001  0.000000e+000
    outer loop
      vertex -6.525325e+000 -1.202082e+000  0.000000e+000
      vertex -6.525325e+000 -1.202082e+000  3.000000e+000
      vertex -6.027407e+000 -4.440892e-016  3.000000e+000
    endloop
  endfacet
  facet normal -9.238795e-001  3.826835e-001  0.000000e+000
    outer loop
      vertex -6.525325e+000 -1.202082e+000  0.000000e+000
      vertex -6.027407e+000 -4.440892e-016  3.000000e+000
      vertex -6.027407e+000 -4.440892e-016  0.000000e+000
    endloop
  endfacet
  facet normal -3.826835e-001  9.238794e-001  0.000000e+000
    outer loop
      vertex -6.525325e+000 -1.202082e+000  3.000000e+000
      vertex -7.727407e+000 -1.700000e+000  0.000000e+000
      vertex -7.727407e+000 -1.700000e+000  3.000000e+000
    endloop
  endfacet
  facet normal  3.826834e-001  9.238795e-001  0.000000e+000
    outer loop
      vertex -7.727407e+000 -1.700000e+000  3.000000e+000
      vertex -7.727407e+000 -1.700000e+000  0.000000e+000
      vertex -8.929488e+000 -1.202082e+000  0.000000e+000
    endloop
  endfacet
  facet normal  3.826834e-001  9.238795e-001  -0.000000e+000
    outer loop
      vertex -7.727407e+000 -1.700000e+000  3.000000e+000
      vertex -8.929488e+000 -1.202082e+000  0.000000e+000
      vertex -8.929488e+000 -1.202082e+000  3.000000e+000
    endloop
  endfacet
  facet normal  9.238796e-001  3.826832e-001  0.000000e+000
    outer loop
      vertex -8.929488e+000 -1.202082e+000  3.000000e+000
      vertex -8.929488e+000 -1.202082e+000  0.000000e+000
      vertex -9.427406e+000 -2.359061e-016  0.000000e+000
    endloop
  endfacet
  facet normal  9.238796e-001  3.826832e-001  2.600166e-015
    outer loop
      vertex -8.929488e+000 -1.202082e+000  3.000000e+000
      vertex -9.427406e+000 -2.359061e-016  0.000000e+000
      vertex -9.427406e+000 -2.061960e-014  3.000000e+000
    endloop
  endfacet
  facet normal  3.826834e-001 -9.238795e-001  0.000000e+000
    outer loop
      vertex -7.727407e+000  1.700000e+000  0.000000e+000
      vertex -8.929488e+000  1.202082e+000  3.000000e+000
      vertex -8.929488e+000  1.202082e+000  0.000000e+000
    endloop
  endfacet
  facet normal  9.238796e-001 -3.826832e-001  0.000000e+000
    outer loop
      vertex -8.929488e+000  1.202082e+000  0.000000e+000
      vertex -8.929488e+000  1.202082e+000  3.000000e+000
      vertex -9.427406e+000 -2.061960e-014  3.000000e+000
    endloop
  endfacet
  facet normal  9.238796e-001 -3.826832e-001 -2.600166e-015
    outer loop
      vertex -8.929488e+000  1.202082e+000  0.000000e+000
      vertex -9.427406e+000 -2.061960e-014  3.000000e+000
      vertex -9.427406e+000 -2.359061e-016  0.000000e+000
    endloop
  endfacet
  facet normal  3.826834e-001 -9.238795e-001  0.000000e+000
    outer loop
      vertex -8.929488e+000  1.202082e+000  3.000000e+000
      vertex -7.727407e+000  1.700000e+000  0.000000e+000
      vertex -7.727407e+000  1.700000e+000  3.000000e+000
    endloop
  endfacet
  facet normal -3.826835e-001 -9.238794e-001  -0.000000e+000
    outer loop
      vertex -7.727407e+000  1.700000e+000  3.000000e+000
      vertex -7.727407e+000  1.700000e+000  0.000000e+000
      vertex -6.525325e+000  1.202082e+000  0.000000e+000
    endloop
  endfacet
  facet normal -3.826835e-001 -9.238794e-001  0.000000e+000
    outer loop
      vertex -7.727407e+000  1.700000e+000  3.000000e+000
      vertex -6.525325e+000  1.202082e+000  0.000000e+000
      vertex -6.525325e+000  1.202082e+000  3.000000e+000
    endloop
  endfacet
  facet normal -9.238795e-001 -3.826835e-001  -0.000000e+000
    outer loop
      vertex -6.525325e+000  1.202082e+000  3.000000e+000
      vertex -6.525325e+000  1.202082e+000  0.000000e+000
      vertex -6.027407e+000 -4.440892e-016  0.000000e+000
    endloop
  endfacet
  facet normal -9.238795e-001 -3.826835e-001  0.000000e+000
    outer loop
      vertex -6.525325e+000  1.202082e+000  3.000000e+000
      vertex -6.027407e+000 -4.440892e-016  0.000000e+000
      vertex -6.027407e+000 -4.440892e-016  3.000000e+000
    endloop
  endfacet
  facet normal -1.000000e+000  0.000000e+000  0.000000e+000
    outer loop
      vertex -1.448889e+001  5.382286e+000  5.000000e+000
      vertex -1.448889e+001  4.835980e+000  5.890096e+000
      vertex -1.448889e+001  5.193274e+000  5.584065e+000
    endloop
  endfacet
  facet normal -1.000000e+000  -0.000000e+000  -0.000000e+000
    outer loop
      vertex -1.448889e+001 -4.132286e+000  3.000000e+000
      vertex -1.448889e+001  4.132286e+000  3.000000e+000
      vertex -1.448889e+001  5.382286e+000  0.000000e+000
    endloop
  endfacet
  facet normal -1.000000e+000  0.000000e+000  0.000000e+000
    outer loop
      vertex -1.448889e+001 -4.132286e+000  3.000000e+000
      vertex -1.448889e+001  5.382286e+000  0.000000e+000
      vertex -1.448889e+001 -5.382286e+000  0.000000e+000
    endloop
  endfacet
  facet normal -1.000000e+000  0.000000e+000  0.000000e+000
    outer loop
      vertex -1.448889e+001 -4.132286e+000  3.000000e+000
      vertex -1.448889e+001 -5.382286e+000  0.000000e+000
      vertex -1.448889e+001 -5.382286e+000  5.000000e+000
    endloop
  endfacet
  facet normal -1.000000e+000  0.000000e+000  0.000000e+000
    outer loop
      vertex -1.448889e+001 -4.132286e+000  3.000000e+000
      vertex -1.448889e+001 -5.382286e+000  5.000000e+000
      vertex -1.448889e+001 -5.193274e+000  5.584065e+000
    endloop
  endfacet
  facet normal -1.000000e+000  0.000000e+000  0.000000e+000
    outer loop
      vertex -1.448889e+001 -4.132286e+000  3.000000e+000
      vertex -1.448889e+001 -5.193274e+000  5.584065e+000
      vertex -1.448889e+001 -4.835980e+000  5.890096e+000
    endloop
  endfacet
  facet normal -1.000000e+000  0.000000e+000  0.000000e+000
    outer loop
      vertex -1.448889e+001 -4.132286e+000  3.000000e+000
      vertex -1.448889e+001 -4.835980e+000  5.890096e+000
      vertex -1.448889e+001 -4.378466e+000  6.000000e+000
    endloop
  endfacet
  facet normal -1.000000e+000  0.000000e+000  0.000000e+000
    outer loop
      vertex -1.448889e+001 -4.132286e+000  3.000000e+000
      vertex -1.448889e+001 -4.378466e+000  6.000000e+000
      vertex -1.448889e+001 -4.132286e+000  6.000000e+000
    endloop
  endfacet
  facet normal -1.000000e+000  0.000000e+000  0.000000e+000
    outer loop
      vertex -1.448889e+001  4.378466e+000  6.000000e+000
      vertex -1.448889e+001  4.835980e+000  5.890096e+000
      vertex -1.448889e+001  4.132286e+000  6.000000e+000
    endloop
  endfacet
  facet normal -1.000000e+000  0.000000e+000  0.000000e+000
    outer loop
      vertex -1.448889e+001  4.132286e+000  6.000000e+000
      vertex -1.448889e+001  4.835980e+000  5.890096e+000
      vertex -1.448889e+001  5.382286e+000  5.000000e+000
    endloop
  endfacet
  facet normal -1.000000e+000  -0.000000e+000  0.000000e+000
    outer loop
      vertex -1.448889e+001  4.132286e+000  6.000000e+000
      vertex -1.448889e+001  5.382286e+000  5.000000e+000
      vertex -1.448889e+001  4.132286e+000  3.000000e+000
    endloop
  endfacet
  facet normal -1.000000e+000  0.000000e+000  0.000000e+000
    outer loop
      vertex -1.448889e+001  4.132286e+000  3.000000e+000
      vertex -1.448889e+001  5.382286e+000  5.000000e+000
      vertex -1.448889e+001  5.382286e+000  0.000000e+000
    endloop
  endfacet
  facet normal  0.000000e+000  0.000000e+000 -1.000000e+000
    outer loop
      vertex  5.435007e+000  1.806508e+000  0.000000e+000
      vertex  5.435007e+000 -1.806508e+000  0.000000e+000
      vertex  1.463272e+000  1.278329e+000  0.000000e+000
    endloop
  endfacet
  facet normal  0.000000e+000  0.000000e+000 -1.000000e+000
    outer loop
      vertex  5.435007e+000  1.806508e+000  0.000000e+000
      vertex  1.463272e+000  1.278329e+000  0.000000e+000
      vertex  3.110123e-001  1.779734e+000  0.000000e+000
    endloop
  endfacet
  facet normal  2.120045e-016 -4.057287e-014 -1.000000e+000
    outer loop
      vertex  5.435007e+000  1.806508e+000  0.000000e+000
      vertex  3.110123e-001  1.779734e+000  0.000000e+000
      vertex -4.440892e-016  1.800000e+000 -8.881784e-016
    endloop
  endfacet
  facet normal  1.632390e-016  1.495809e-016 -1.000000e+000
    outer loop
      vertex  5.435007e+000  1.806508e+000  0.000000e+000
      vertex -4.440892e-016  1.800000e+000 -8.881784e-016
      vertex  3.609318e+000  3.798898e+000  0.000000e+000
    endloop
  endfacet
  facet normal  0.000000e+000  0.000000e+000 -1.000000e+000
    outer loop
      vertex  5.435007e+000  1.806508e+000  0.000000e+000
      vertex  3.609318e+000  3.798898e+000  0.000000e+000
      vertex  4.909561e+000  3.157689e+000  0.000000e+000
    endloop
  endfacet
  facet normal  3.357085e-017  3.837167e-016 -1.000000e+000
    outer loop
      vertex -1.448889e+001  5.382286e+000  0.000000e+000
      vertex  3.609318e+000  3.798898e+000  0.000000e+000
      vertex -4.440892e-016  1.800000e+000 -8.881784e-016
    endloop
  endfacet
  facet normal -1.122709e-016 -2.061540e-016 -1.000000e+000
    outer loop
      vertex -1.448889e+001  5.382286e+000  0.000000e+000
      vertex -4.440892e-016  1.800000e+000 -8.881784e-016
      vertex -7.727407e+000  1.700000e+000  0.000000e+000
    endloop
  endfacet
  facet normal  -0.000000e+000  0.000000e+000 -9.999999e-001
    outer loop
      vertex -1.448889e+001  5.382286e+000  0.000000e+000
      vertex -7.727407e+000  1.700000e+000  0.000000e+000
      vertex -8.929488e+000  1.202082e+000  0.000000e+000
    endloop
  endfacet
  facet normal  -0.000000e+000  0.000000e+000 -1.000000e+000
    outer loop
      vertex -1.448889e+001  5.382286e+000  0.000000e+000
      vertex -8.929488e+000  1.202082e+000  0.000000e+000
      vertex -1.448889e+001 -5.382286e+000  0.000000e+000
    endloop
  endfacet
  facet normal  0.000000e+000  0.000000e+000 -1.000000e+000
    outer loop
      vertex -1.448889e+001 -5.382286e+000  0.000000e+000
      vertex -8.929488e+000  1.202082e+000  0.000000e+000
      vertex -9.427406e+000 -2.359061e-016  0.000000e+000
    endloop
  endfacet
  facet normal  0.000000e+000  -0.000000e+000 -1.000000e+000
    outer loop
      vertex -1.448889e+001 -5.382286e+000  0.000000e+000
      vertex -9.427406e+000 -2.359061e-016  0.000000e+000
      vertex -8.929488e+000 -1.202082e+000  0.000000e+000
    endloop
  endfacet
  facet normal  0.000000e+000  -0.000000e+000 -9.999999e-001
    outer loop
      vertex -1.448889e+001 -5.382286e+000  0.000000e+000
      vertex -8.929488e+000 -1.202082e+000  0.000000e+000
      vertex -7.727407e+000 -1.700000e+000  0.000000e+000
    endloop
  endfacet
  facet normal  2.196977e-016  2.522011e-015 -1.000000e+000
    outer loop
      vertex  5.435007e+000 -1.806508e+000  0.000000e+000
      vertex  5.728012e-017 -1.800000e+000 -1.177644e-015
      vertex  1.244781e+000 -1.441489e+000  0.000000e+000
    endloop
  endfacet
  facet normal  0.000000e+000  0.000000e+000 -9.999999e-001
    outer loop
      vertex  5.435007e+000 -1.806508e+000  0.000000e+000
      vertex  1.244781e+000 -1.441489e+000  0.000000e+000
      vertex  1.714963e+000 -1.016945e+000  0.000000e+000
    endloop
  endfacet
  facet normal  0.000000e+000  0.000000e+000 -9.999999e-001
    outer loop
      vertex  5.435007e+000 -1.806508e+000  0.000000e+000
      vertex  1.714963e+000 -1.016945e+000  0.000000e+000
      vertex  2.048231e+000 -3.058798e-001  0.000000e+000
    endloop
  endfacet
  facet normal  0.000000e+000  0.000000e+000 -1.000000e+000
    outer loop
      vertex  5.435007e+000 -1.806508e+000  0.000000e+000
      vertex  2.048231e+000 -3.058798e-001  0.000000e+000
      vertex  1.850308e+000  8.199212e-001  0.000000e+000
    endloop
  endfacet
  facet normal  0.000000e+000  0.000000e+000 -1.000000e+000
    outer loop
      vertex  5.435007e+000 -1.806508e+000  0.000000e+000
      vertex  1.850308e+000  8.199212e-001  0.000000e+000
      vertex  1.463272e+000  1.278329e+000  0.000000e+000
    endloop
  endfacet
  facet normal  0.000000e+000  0.000000e+000 -1.000000e+000
    outer loop
      vertex  4.909561e+000 -3.157689e+000  0.000000e+000
      vertex  3.609318e+000 -3.798898e+000  0.000000e+000
      vertex  5.435007e+000 -1.806508e+000  0.000000e+000
    endloop
  endfacet
  facet normal  2.164401e-016 -1.983308e-016 -1.000000e+000
    outer loop
      vertex  5.435007e+000 -1.806508e+000  0.000000e+000
      vertex  3.609318e+000 -3.798898e+000  0.000000e+000
      vertex  5.728012e-017 -1.800000e+000 -1.177644e-015
    endloop
  endfacet
  facet normal  4.451191e-017 -5.087736e-016 -1.000000e+000
    outer loop
      vertex  3.609318e+000 -3.798898e+000  0.000000e+000
      vertex -1.448889e+001 -5.382286e+000  0.000000e+000
      vertex  5.728012e-017 -1.800000e+000 -1.177644e-015
    endloop
  endfacet
  facet normal -1.488611e-016  2.733415e-016 -1.000000e+000
    outer loop
      vertex  5.728012e-017 -1.800000e+000 -1.177644e-015
      vertex -1.448889e+001 -5.382286e+000  0.000000e+000
      vertex -7.727407e+000 -1.700000e+000  0.000000e+000
    endloop
  endfacet
  facet normal  0.000000e+000  0.000000e+000 -1.000000e+000
    outer loop
      vertex -1.714963e+000  1.016945e+000  0.000000e+000
      vertex -6.525325e+000  1.202082e+000  0.000000e+000
      vertex -1.244781e+000  1.441489e+000  0.000000e+000
    endloop
  endfacet
  facet normal  -0.000000e+000  0.000000e+000 -1.000000e+000
    outer loop
      vertex -1.244781e+000  1.441489e+000  0.000000e+000
      vertex -6.525325e+000  1.202082e+000  0.000000e+000
      vertex -7.727407e+000  1.700000e+000  0.000000e+000
    endloop
  endfacet
  facet normal -8.677784e-017 -2.176109e-015 -1.000000e+000
    outer loop
      vertex -1.244781e+000  1.441489e+000  0.000000e+000
      vertex -7.727407e+000  1.700000e+000  0.000000e+000
      vertex -4.440892e-016  1.800000e+000 -8.881784e-016
    endloop
  endfacet
  facet normal  0.000000e+000  0.000000e+000 -1.000000e+000
    outer loop
      vertex -1.463272e+000 -1.278329e+000  0.000000e+000
      vertex -6.525325e+000 -1.202082e+000  0.000000e+000
      vertex -1.850308e+000 -8.199212e-001  0.000000e+000
    endloop
  endfacet
  facet normal  -0.000000e+000  0.000000e+000 -1.000000e+000
    outer loop
      vertex -1.850308e+000 -8.199212e-001  0.000000e+000
      vertex -6.525325e+000 -1.202082e+000  0.000000e+000
      vertex -6.027407e+000 -4.440892e-016  0.000000e+000
    endloop
  endfacet
  facet normal  0.000000e+000  0.000000e+000 -1.000000e+000
    outer loop
      vertex -1.850308e+000 -8.199212e-001  0.000000e+000
      vertex -6.027407e+000 -4.440892e-016  0.000000e+000
      vertex -2.048231e+000  3.058798e-001  0.000000e+000
    endloop
  endfacet
  facet normal  -0.000000e+000  0.000000e+000 -1.000000e+000
    outer loop
      vertex -2.048231e+000  3.058798e-001  0.000000e+000
      vertex -6.027407e+000 -4.440892e-016  0.000000e+000
      vertex -6.525325e+000  1.202082e+000  0.000000e+000
    endloop
  endfacet
  facet normal  0.000000e+000  0.000000e+000 -1.000000e+000
    outer loop
      vertex -2.048231e+000  3.058798e-001  0.000000e+000
      vertex -6.525325e+000  1.202082e+000  0.000000e+000
      vertex -1.714963e+000  1.016945e+000  0.000000e+000
    endloop
  endfacet
  facet normal  7.481882e-016  6.959205e-014 -1.000000e+000
    outer loop
      vertex  5.728012e-017 -1.800000e+000 -1.177644e-015
      vertex -7.727407e+000 -1.700000e+000  0.000000e+000
      vertex -3.110123e-001 -1.779734e+000  0.000000e+000
    endloop
  endfacet
  facet normal  0.000000e+000  0.000000e+000 -1.000000e+000
    outer loop
      vertex -3.110123e-001 -1.779734e+000  0.000000e+000
      vertex -7.727407e+000 -1.700000e+000  0.000000e+000
      vertex -6.525325e+000 -1.202082e+000  0.000000e+000
    endloop
  endfacet
  facet normal  0.000000e+000  0.000000e+000 -1.000000e+000
    outer loop
      vertex -3.110123e-001 -1.779734e+000  0.000000e+000
      vertex -6.525325e+000 -1.202082e+000  0.000000e+000
      vertex -1.463272e+000 -1.278329e+000  0.000000e+000
    endloop
  endfacet
  facet normal  6.991019e-001  5.902541e-001 -4.035552e-001
    outer loop
      vertex  8.397730e+000 -1.272792e+000  1.709088e+001
      vertex -1.463272e+000 -1.278329e+000  0.000000e+000
      vertex -1.850308e+000 -8.199212e-001  0.000000e+000
    endloop
  endfacet
  facet normal  7.967931e-001  3.826750e-001 -4.676332e-001
    outer loop
      vertex -1.850308e+000 -8.199212e-001  0.000000e+000
      vertex  7.941154e+000 -2.894657e-016  1.735448e+001
      vertex  8.397730e+000 -1.272792e+000  1.709088e+001
    endloop
  endfacet
  facet normal  3.888122e-001  8.935149e-001 -2.246242e-001
    outer loop
      vertex -1.463272e+000 -1.278329e+000  0.000000e+000
      vertex  8.397730e+000 -1.272792e+000  1.709088e+001
      vertex -3.110123e-001 -1.779734e+000  0.000000e+000
    endloop
  endfacet
  facet normal  3.292086e-001  9.238706e-001 -1.951533e-001
    outer loop
      vertex -3.110123e-001 -1.779734e+000  0.000000e+000
      vertex  8.397730e+000 -1.272792e+000  1.709088e+001
      vertex  9.500000e+000 -1.800000e+000  1.645448e+001
    endloop
  endfacet
  facet normal  6.497717e-002  9.971814e-001 -3.751458e-002
    outer loop
      vertex -3.110123e-001 -1.779734e+000  0.000000e+000
      vertex  9.500000e+000 -1.800000e+000  1.645448e+001
      vertex  5.728012e-017 -1.800000e+000 -1.177644e-015
    endloop
  endfacet
  facet normal  8.579108e-001  1.508262e-001 -4.911623e-001
    outer loop
      vertex -1.850308e+000 -8.199212e-001  0.000000e+000
      vertex -2.048231e+000  3.058798e-001  0.000000e+000
      vertex  7.941154e+000 -2.894657e-016  1.735448e+001
    endloop
  endfacet
  facet normal  8.004939e-001 -3.751826e-001 -4.673837e-001
    outer loop
      vertex  7.941154e+000 -2.894657e-016  1.735448e+001
      vertex -2.048231e+000  3.058798e-001  0.000000e+000
      vertex -1.714963e+000  1.016945e+000  0.000000e+000
    endloop
  endfacet
  facet normal  7.976174e-001 -3.826785e-001 -4.662225e-001
    outer loop
      vertex  7.941154e+000 -2.894657e-016  1.735448e+001
      vertex -1.714963e+000  1.016945e+000  0.000000e+000
      vertex  8.397730e+000  1.272792e+000  1.709088e+001
    endloop
  endfacet
  facet normal  6.253276e-001 -6.925493e-001 -3.596397e-001
    outer loop
      vertex -1.714963e+000  1.016945e+000  0.000000e+000
      vertex -1.244781e+000  1.441489e+000  0.000000e+000
      vertex  8.397730e+000  1.272792e+000  1.709088e+001
    endloop
  endfacet
  facet normal  2.730413e-001 -9.480228e-001 -1.634048e-001
    outer loop
      vertex  8.397730e+000  1.272792e+000  1.709088e+001
      vertex -1.244781e+000  1.441489e+000  0.000000e+000
      vertex -4.440892e-016  1.800000e+000 -8.881784e-016
    endloop
  endfacet
  facet normal  3.314136e-001 -9.238795e-001 -1.913417e-001
    outer loop
      vertex  8.397730e+000  1.272792e+000  1.709088e+001
      vertex -4.440892e-016  1.800000e+000 -8.881784e-016
      vertex  9.500000e+000  1.800000e+000  1.645448e+001
    endloop
  endfacet
  facet normal -3.314136e-001 -9.238795e-001  1.913417e-001
    outer loop
      vertex  1.060227e+001  1.272792e+000  1.581809e+001
      vertex  9.500000e+000  1.800000e+000  1.645448e+001
      vertex -4.440892e-016  1.800000e+000 -8.881784e-016
    endloop
  endfacet
  facet normal -6.501946e-002 -9.978306e-001  1.032299e-002
    outer loop
      vertex  1.060227e+001  1.272792e+000  1.581809e+001
      vertex -4.440892e-016  1.800000e+000 -8.881784e-016
      vertex  3.110123e-001  1.779734e+000  0.000000e+000
    endloop
  endfacet
  facet normal -3.888383e-001 -8.935749e-001  2.243409e-001
    outer loop
      vertex  1.060227e+001  1.272792e+000  1.581809e+001
      vertex  3.110123e-001  1.779734e+000  0.000000e+000
      vertex  1.463272e+000  1.278329e+000  0.000000e+000
    endloop
  endfacet
  facet normal -6.990598e-001 -5.902187e-001  4.036796e-001
    outer loop
      vertex  1.060227e+001  1.272792e+000  1.581809e+001
      vertex  1.463272e+000  1.278329e+000  0.000000e+000
      vertex  1.850308e+000  8.199212e-001  0.000000e+000
    endloop
  endfacet
  facet normal -8.037120e-001 -3.826734e-001  4.556403e-001
    outer loop
      vertex  1.060227e+001  1.272792e+000  1.581809e+001
      vertex  1.850308e+000  8.199212e-001  0.000000e+000
      vertex  1.105885e+001 -3.306437e-016  1.555448e+001
    endloop
  endfacet
  facet normal -8.541997e-001 -1.501738e-001  4.977857e-001
    outer loop
      vertex  1.850308e+000  8.199212e-001  0.000000e+000
      vertex  2.048231e+000 -3.058798e-001  0.000000e+000
      vertex  1.105885e+001 -3.306437e-016  1.555448e+001
    endloop
  endfacet
  facet normal -8.046073e-001  3.771105e-001  4.586881e-001
    outer loop
      vertex  1.105885e+001 -3.306437e-016  1.555448e+001
      vertex  2.048231e+000 -3.058798e-001  0.000000e+000
      vertex  1.714963e+000 -1.016945e+000  0.000000e+000
    endloop
  endfacet
  facet normal -8.028014e-001  3.826779e-001  4.572392e-001
    outer loop
      vertex  1.105885e+001 -3.306437e-016  1.555448e+001
      vertex  1.714963e+000 -1.016945e+000  0.000000e+000
      vertex  1.060227e+001 -1.272792e+000  1.581809e+001
    endloop
  endfacet
  facet normal -6.246741e-001  6.918256e-001  3.621597e-001
    outer loop
      vertex  1.714963e+000 -1.016945e+000  0.000000e+000
      vertex  1.244781e+000 -1.441489e+000  0.000000e+000
      vertex  1.060227e+001 -1.272792e+000  1.581809e+001
    endloop
  endfacet
  facet normal -2.735583e-001  9.498175e-001  1.516990e-001
    outer loop
      vertex  1.060227e+001 -1.272792e+000  1.581809e+001
      vertex  1.244781e+000 -1.441489e+000  0.000000e+000
      vertex  5.728012e-017 -1.800000e+000 -1.177644e-015
    endloop
  endfacet
  facet normal -3.314136e-001  9.238795e-001  1.913417e-001
    outer loop
      vertex  1.060227e+001 -1.272792e+000  1.581809e+001
      vertex  5.728012e-017 -1.800000e+000 -1.177644e-015
      vertex  9.500000e+000 -1.800000e+000  1.645448e+001
    endloop
  endfacet
  facet normal  5.000018e-001  1.341211e-006  8.660244e-001
    outer loop
      vertex  7.364355e+000 -9.888544e-001  1.884220e+001
      vertex  8.371081e+000 -2.588854e+000  1.826097e+001
      vertex  7.693810e+000 -8.652476e-001  1.865199e+001
    endloop
  endfacet
  facet normal  5.000021e-001  0.000000e+000  8.660241e-001
    outer loop
      vertex  7.364355e+000 -9.888544e-001  1.884220e+001
      vertex  7.693810e+000 -8.652476e-001  1.865199e+001
      vertex  7.364355e+000  9.888544e-001  1.884220e+001
    endloop
  endfacet
  facet normal  5.000022e-001  0.000000e+000  8.660242e-001
    outer loop
      vertex  7.364355e+000  9.888544e-001  1.884220e+001
      vertex  7.693810e+000 -8.652476e-001  1.865199e+001
      vertex  7.693810e+000  8.652476e-001  1.865199e+001
    endloop
  endfacet
  facet normal  5.000018e-001 -1.341211e-006  8.660244e-001
    outer loop
      vertex  7.364355e+000  9.888544e-001  1.884220e+001
      vertex  7.693810e+000  8.652476e-001  1.865199e+001
      vertex  8.371081e+000  2.588854e+000  1.826097e+001
    endloop
  endfacet
  facet normal  5.000002e-001 -4.966134e-007  8.660253e-001
    outer loop
      vertex  8.371081e+000  2.588854e+000  1.826097e+001
      vertex  7.693810e+000  8.652476e-001  1.865199e+001
      vertex  8.574697e+000  2.265248e+000  1.814341e+001
    endloop
  endfacet
  facet normal  5.000001e-001 -5.853478e-007  8.660253e-001
    outer loop
      vertex  8.371081e+000  2.588854e+000  1.826097e+001
      vertex  8.574697e+000  2.265248e+000  1.814341e+001
      vertex  1.000000e+001  3.200000e+000  1.732051e+001
    endloop
  endfacet
  facet normal  4.999998e-001  0.000000e+000  8.660255e-001
    outer loop
      vertex  1.000000e+001  3.200000e+000  1.732051e+001
      vertex  8.574697e+000  2.265248e+000  1.814341e+001
      vertex  1.000000e+001  2.800000e+000  1.732051e+001
    endloop
  endfacet
  facet normal  4.999999e-001  -0.000000e+000  8.660255e-001
    outer loop
      vertex  1.000000e+001  3.200000e+000  1.732051e+001
      vertex  1.000000e+001  2.800000e+000  1.732051e+001
      vertex  1.162892e+001  2.588854e+000  1.638005e+001
    endloop
  endfacet
  facet normal  4.999996e-001 -4.050496e-006  8.660257e-001
    outer loop
      vertex  1.162892e+001  2.588854e+000  1.638005e+001
      vertex  1.000000e+001  2.800000e+000  1.732051e+001
      vertex  1.142530e+001  2.265248e+000  1.649761e+001
    endloop
  endfacet
  facet normal  4.999977e-001 -2.567594e-006  8.660267e-001
    outer loop
      vertex  1.162892e+001  2.588854e+000  1.638005e+001
      vertex  1.142530e+001  2.265248e+000  1.649761e+001
      vertex  1.263564e+001  9.888544e-001  1.579882e+001
    endloop
  endfacet
  facet normal  5.000002e-001  4.759684e-007  8.660254e-001
    outer loop
      vertex  1.263564e+001  9.888544e-001  1.579882e+001
      vertex  1.142530e+001  2.265248e+000  1.649761e+001
      vertex  1.230619e+001  8.652476e-001  1.598903e+001
    endloop
  endfacet
  facet normal  5.000003e-001  0.000000e+000  8.660253e-001
    outer loop
      vertex  1.263564e+001  9.888544e-001  1.579882e+001
      vertex  1.230619e+001  8.652476e-001  1.598903e+001
      vertex  1.263564e+001 -9.888544e-001  1.579882e+001
    endloop
  endfacet
  facet normal  5.000004e-001  0.000000e+000  8.660253e-001
    outer loop
      vertex  1.263564e+001 -9.888544e-001  1.579882e+001
      vertex  1.230619e+001  8.652476e-001  1.598903e+001
      vertex  1.230619e+001 -8.652476e-001  1.598903e+001
    endloop
  endfacet
  facet normal  5.000004e-001  3.524905e-007  8.660253e-001
    outer loop
      vertex  1.263564e+001 -9.888544e-001  1.579882e+001
      vertex  1.230619e+001 -8.652476e-001  1.598903e+001
      vertex  1.162892e+001 -2.588854e+000  1.638005e+001
    endloop
  endfacet
  facet normal  4.999971e-001  2.055579e-006  8.660271e-001
    outer loop
      vertex  1.162892e+001 -2.588854e+000  1.638005e+001
      vertex  1.230619e+001 -8.652476e-001  1.598903e+001
      vertex  1.142530e+001 -2.265248e+000  1.649761e+001
    endloop
  endfacet
  facet normal  4.999989e-001  3.544185e-006  8.660260e-001
    outer loop
      vertex  1.162892e+001 -2.588854e+000  1.638005e+001
      vertex  1.142530e+001 -2.265248e+000  1.649761e+001
      vertex  1.000000e+001 -3.200000e+000  1.732051e+001
    endloop
  endfacet
  facet normal  5.000006e-001  -0.000000e+000  8.660250e-001
    outer loop
      vertex  1.000000e+001 -3.200000e+000  1.732051e+001
      vertex  1.142530e+001 -2.265248e+000  1.649761e+001
      vertex  1.000000e+001 -2.800000e+000  1.732051e+001
    endloop
  endfacet
  facet normal  4.999999e-001  0.000000e+000  8.660255e-001
    outer loop
      vertex  1.000000e+001 -3.200000e+000  1.732051e+001
      vertex  1.000000e+001 -2.800000e+000  1.732051e+001
      vertex  8.371081e+000 -2.588854e+000  1.826097e+001
    endloop
  endfacet
  facet normal  5.000000e-001  6.689692e-007  8.660254e-001
    outer loop
      vertex  8.371081e+000 -2.588854e+000  1.826097e+001
      vertex  1.000000e+001 -2.800000e+000  1.732051e+001
      vertex  8.574697e+000 -2.265248e+000  1.814341e+001
    endloop
  endfacet
  facet normal  5.000002e-001  4.966134e-007  8.660253e-001
    outer loop
      vertex  8.371081e+000 -2.588854e+000  1.826097e+001
      vertex  8.574697e+000 -2.265248e+000  1.814341e+001
      vertex  7.693810e+000 -8.652476e-001  1.865199e+001
    endloop
  endfacet
  facet normal -6.572961e-002 -8.848704e-001  4.611767e-001
    outer loop
      vertex  9.500000e+000  1.800000e+000  1.645448e+001
      vertex  1.091891e+001  1.693186e+000  1.645177e+001
      vertex  9.853554e+000  2.092893e+000  1.706685e+001
    endloop
  endfacet
  facet normal -6.045206e-002 -8.175950e-001  5.726116e-001
    outer loop
      vertex  9.500000e+000  1.800000e+000  1.645448e+001
      vertex  1.060227e+001  1.272792e+000  1.581809e+001
      vertex  1.091891e+001  1.693186e+000  1.645177e+001
    endloop
  endfacet
  facet normal -6.045206e-002  8.175950e-001  5.726116e-001
    outer loop
      vertex  9.500000e+000 -1.800000e+000  1.645448e+001
      vertex  1.091891e+001 -1.693186e+000  1.645177e+001
      vertex  1.060227e+001 -1.272792e+000  1.581809e+001
    endloop
  endfacet
  facet normal -6.572961e-002  8.848704e-001  4.611767e-001
    outer loop
      vertex  9.500000e+000 -1.800000e+000  1.645448e+001
      vertex  9.853554e+000 -2.092893e+000  1.706685e+001
      vertex  1.091891e+001 -1.693186e+000  1.645177e+001
    endloop
  endfacet
  facet normal -4.295388e-001  3.283133e-001  8.412531e-001
    outer loop
      vertex  1.157734e+001 -6.467395e-001  1.607162e+001
      vertex  1.105885e+001 -3.306437e-016  1.555448e+001
      vertex  1.060227e+001 -1.272792e+000  1.581809e+001
    endloop
  endfacet
  facet normal -5.269754e-001  5.628887e-001  6.367520e-001
    outer loop
      vertex  1.157734e+001 -6.467395e-001  1.607162e+001
      vertex  1.060227e+001 -1.272792e+000  1.581809e+001
      vertex  1.091891e+001 -1.693186e+000  1.645177e+001
    endloop
  endfacet
  facet normal -4.295388e-001 -3.283133e-001  8.412531e-001
    outer loop
      vertex  1.157734e+001  6.467395e-001  1.607162e+001
      vertex  1.060227e+001  1.272792e+000  1.581809e+001
      vertex  1.105885e+001 -3.306437e-016  1.555448e+001
    endloop
  endfacet
  facet normal -7.061816e-001  0.000000e+000  7.080308e-001
    outer loop
      vertex  1.157734e+001  6.467395e-001  1.607162e+001
      vertex  1.105885e+001 -3.306437e-016  1.555448e+001
      vertex  1.157734e+001 -6.467395e-001  1.607162e+001
    endloop
  endfacet
  facet normal -5.269754e-001 -5.628887e-001  6.367520e-001
    outer loop
      vertex  1.091891e+001  1.693186e+000  1.645177e+001
      vertex  1.060227e+001  1.272792e+000  1.581809e+001
      vertex  1.157734e+001  6.467395e-001  1.607162e+001
    endloop
  endfacet
  facet normal  3.515489e-001  3.797603e-001  8.556842e-001
    outer loop
      vertex  9.853554e+000 -2.092893e+000  1.706685e+001
      vertex  1.000000e+001 -2.800000e+000  1.732051e+001
      vertex  1.091891e+001 -1.693186e+000  1.645177e+001
    endloop
  endfacet
  facet normal  3.515505e-001  3.797590e-001  8.556841e-001
    outer loop
      vertex  1.091891e+001 -1.693186e+000  1.645177e+001
      vertex  1.000000e+001 -2.800000e+000  1.732051e+001
      vertex  1.142530e+001 -2.265248e+000  1.649761e+001
    endloop
  endfacet
  facet normal  1.786473e-001  2.347039e-001  9.555100e-001
    outer loop
      vertex  1.091891e+001 -1.693186e+000  1.645177e+001
      vertex  1.142530e+001 -2.265248e+000  1.649761e+001
      vertex  1.157734e+001 -6.467395e-001  1.607162e+001
    endloop
  endfacet
  facet normal  1.786463e-001  2.347040e-001  9.555101e-001
    outer loop
      vertex  1.157734e+001 -6.467395e-001  1.607162e+001
      vertex  1.142530e+001 -2.265248e+000  1.649761e+001
      vertex  1.230619e+001 -8.652476e-001  1.598903e+001
    endloop
  endfacet
  facet normal  1.126032e-001  0.000000e+000  9.936401e-001
    outer loop
      vertex  1.157734e+001 -6.467395e-001  1.607162e+001
      vertex  1.230619e+001 -8.652476e-001  1.598903e+001
      vertex  1.157734e+001  6.467395e-001  1.607162e+001
    endloop
  endfacet
  facet normal  1.126031e-001  0.000000e+000  9.936400e-001
    outer loop
      vertex  1.157734e+001  6.467395e-001  1.607162e+001
      vertex  1.230619e+001 -8.652476e-001  1.598903e+001
      vertex  1.230619e+001  8.652476e-001  1.598903e+001
    endloop
  endfacet
  facet normal  1.786464e-001 -2.347044e-001  9.555099e-001
    outer loop
      vertex  1.157734e+001  6.467395e-001  1.607162e+001
      vertex  1.230619e+001  8.652476e-001  1.598903e+001
      vertex  1.091891e+001  1.693186e+000  1.645177e+001
    endloop
  endfacet
  facet normal  1.786469e-001 -2.347036e-001  9.555101e-001
    outer loop
      vertex  1.091891e+001  1.693186e+000  1.645177e+001
      vertex  1.230619e+001  8.652476e-001  1.598903e+001
      vertex  1.142530e+001  2.265248e+000  1.649761e+001
    endloop
  endfacet
  facet normal  3.515499e-001 -3.797585e-001  8.556846e-001
    outer loop
      vertex  1.091891e+001  1.693186e+000  1.645177e+001
      vertex  1.142530e+001  2.265248e+000  1.649761e+001
      vertex  9.853554e+000  2.092893e+000  1.706685e+001
    endloop
  endfacet
  facet normal  3.515498e-001 -3.797604e-001  8.556839e-001
    outer loop
      vertex  9.853554e+000  2.092893e+000  1.706685e+001
      vertex  1.142530e+001  2.265248e+000  1.649761e+001
      vertex  1.000000e+001  2.800000e+000  1.732051e+001
    endloop
  endfacet
  facet normal  4.322552e-001  8.848706e-001  1.736644e-001
    outer loop
      vertex  9.500000e+000 -1.800000e+000  1.645448e+001
      vertex  8.788194e+000 -1.693186e+000  1.768194e+001
      vertex  9.853554e+000 -2.092893e+000  1.706685e+001
    endloop
  endfacet
  facet normal  5.261224e-001  8.175949e-001  2.339526e-001
    outer loop
      vertex  9.500000e+000 -1.800000e+000  1.645448e+001
      vertex  8.397730e+000 -1.272792e+000  1.709088e+001
      vertex  8.788194e+000 -1.693186e+000  1.768194e+001
    endloop
  endfacet
  facet normal  5.261224e-001 -8.175949e-001  2.339526e-001
    outer loop
      vertex  9.500000e+000  1.800000e+000  1.645448e+001
      vertex  8.788194e+000  1.693186e+000  1.768194e+001
      vertex  8.397730e+000  1.272792e+000  1.709088e+001
    endloop
  endfacet
  facet normal  4.322552e-001 -8.848706e-001  1.736644e-001
    outer loop
      vertex  9.500000e+000  1.800000e+000  1.645448e+001
      vertex  9.853554e+000  2.092893e+000  1.706685e+001
      vertex  8.788194e+000  1.693186e+000  1.768194e+001
    endloop
  endfacet
  facet normal  9.433160e-001 -3.283132e-001  4.863505e-002
    outer loop
      vertex  8.129765e+000  6.467395e-001  1.806208e+001
      vertex  7.941154e+000 -2.894657e-016  1.735448e+001
      vertex  8.397730e+000  1.272792e+000  1.709088e+001
    endloop
  endfacet
  facet normal  8.149307e-001 -5.628893e-001 -1.379989e-001
    outer loop
      vertex  8.129765e+000  6.467395e-001  1.806208e+001
      vertex  8.397730e+000  1.272792e+000  1.709088e+001
      vertex  8.788194e+000  1.693186e+000  1.768194e+001
    endloop
  endfacet
  facet normal  9.433160e-001  3.283132e-001  4.863505e-002
    outer loop
      vertex  8.129765e+000 -6.467395e-001  1.806208e+001
      vertex  8.397730e+000 -1.272792e+000  1.709088e+001
      vertex  7.941154e+000 -2.894657e-016  1.735448e+001
    endloop
  endfacet
  facet normal  9.662634e-001  0.000000e+000 -2.575560e-001
    outer loop
      vertex  8.129765e+000 -6.467395e-001  1.806208e+001
      vertex  7.941154e+000 -2.894657e-016  1.735448e+001
      vertex  8.129765e+000  6.467395e-001  1.806208e+001
    endloop
  endfacet
  facet normal  8.149307e-001  5.628893e-001 -1.379989e-001
    outer loop
      vertex  8.788194e+000 -1.693186e+000  1.768194e+001
      vertex  8.397730e+000 -1.272792e+000  1.709088e+001
      vertex  8.129765e+000 -6.467395e-001  1.806208e+001
    endloop
  endfacet
  facet normal  5.652695e-001 -3.797600e-001  7.322928e-001
    outer loop
      vertex  9.853554e+000  2.092893e+000  1.706685e+001
      vertex  1.000000e+001  2.800000e+000  1.732051e+001
      vertex  8.788194e+000  1.693186e+000  1.768194e+001
    endloop
  endfacet
  facet normal  5.652694e-001 -3.797601e-001  7.322928e-001
    outer loop
      vertex  8.788194e+000  1.693186e+000  1.768194e+001
      vertex  1.000000e+001  2.800000e+000  1.732051e+001
      vertex  8.574697e+000  2.265248e+000  1.814341e+001
    endloop
  endfacet
  facet normal  7.381727e-001 -2.347045e-001  6.324672e-001
    outer loop
      vertex  8.788194e+000  1.693186e+000  1.768194e+001
      vertex  8.574697e+000  2.265248e+000  1.814341e+001
      vertex  8.129765e+000  6.467395e-001  1.806208e+001
    endloop
  endfacet
  facet normal  7.381727e-001 -2.347045e-001  6.324672e-001
    outer loop
      vertex  8.129765e+000  6.467395e-001  1.806208e+001
      vertex  8.574697e+000  2.265248e+000  1.814341e+001
      vertex  7.693810e+000  8.652476e-001  1.865199e+001
    endloop
  endfacet
  facet normal  8.042159e-001  0.000000e+000  5.943372e-001
    outer loop
      vertex  8.129765e+000  6.467395e-001  1.806208e+001
      vertex  7.693810e+000  8.652476e-001  1.865199e+001
      vertex  8.129765e+000 -6.467395e-001  1.806208e+001
    endloop
  endfacet
  facet normal  8.042160e-001  0.000000e+000  5.943372e-001
    outer loop
      vertex  8.129765e+000 -6.467395e-001  1.806208e+001
      vertex  7.693810e+000  8.652476e-001  1.865199e+001
      vertex  7.693810e+000 -8.652476e-001  1.865199e+001
    endloop
  endfacet
  facet normal  7.381727e-001  2.347045e-001  6.324672e-001
    outer loop
      vertex  8.129765e+000 -6.467395e-001  1.806208e+001
      vertex  7.693810e+000 -8.652476e-001  1.865199e+001
      vertex  8.788194e+000 -1.693186e+000  1.768194e+001
    endloop
  endfacet
  facet normal  7.381727e-001  2.347046e-001  6.324672e-001
    outer loop
      vertex  8.788194e+000 -1.693186e+000  1.768194e+001
      vertex  7.693810e+000 -8.652476e-001  1.865199e+001
      vertex  8.574697e+000 -2.265248e+000  1.814341e+001
    endloop
  endfacet
  facet normal  5.652695e-001  3.797601e-001  7.322928e-001
    outer loop
      vertex  8.788194e+000 -1.693186e+000  1.768194e+001
      vertex  8.574697e+000 -2.265248e+000  1.814341e+001
      vertex  9.853554e+000 -2.092893e+000  1.706685e+001
    endloop
  endfacet
  facet normal  5.652695e-001  3.797601e-001  7.322928e-001
    outer loop
      vertex  9.853554e+000 -2.092893e+000  1.706685e+001
      vertex  8.574697e+000 -2.265248e+000  1.814341e+001
      vertex  1.000000e+001 -2.800000e+000  1.732051e+001
    endloop
  endfacet
  facet normal  8.295164e-002 -9.481417e-001  3.068326e-001
    outer loop
      vertex -1.448889e+001 -5.382286e+000  5.000000e+000
      vertex  3.609318e+000 -3.798898e+000  5.000000e+000
      vertex -1.448889e+001 -5.193274e+000  5.584065e+000
    endloop
  endfacet
  facet normal  8.300967e-002 -9.453798e-001  3.152244e-001
    outer loop
      vertex -1.448889e+001 -5.193274e+000  5.584065e+000
      vertex  3.609318e+000 -3.798898e+000  5.000000e+000
      vertex  3.591997e+000 -3.600921e+000  5.598307e+000
    endloop
  endfacet
  facet normal  5.660111e-002 -6.494777e-001  7.582710e-001
    outer loop
      vertex -1.448889e+001 -5.193274e+000  5.584065e+000
      vertex  3.591997e+000 -3.600921e+000  5.598307e+000
      vertex -1.448889e+001 -4.835980e+000  5.890096e+000
    endloop
  endfacet
  facet normal  6.314488e-002 -7.762213e-001  6.272904e-001
    outer loop
      vertex -1.448889e+001 -4.835980e+000  5.890096e+000
      vertex  3.591997e+000 -3.600921e+000  5.598307e+000
      vertex  2.382173e+000 -3.608077e+000  5.711237e+000
    endloop
  endfacet
  facet normal  2.729810e-002 -2.334886e-001  9.719763e-001
    outer loop
      vertex -1.448889e+001 -4.835980e+000  5.890096e+000
      vertex  2.382173e+000 -3.608077e+000  5.711237e+000
      vertex -1.448889e+001 -4.378466e+000  6.000000e+000
    endloop
  endfacet
  facet normal  3.311706e-002 -3.785298e-001  9.249965e-001
    outer loop
      vertex -1.448889e+001 -4.378466e+000  6.000000e+000
      vertex  2.382173e+000 -3.608077e+000  5.711237e+000
      vertex -1.790778e-001 -3.126520e+000  6.000000e+000
    endloop
  endfacet
  facet normal  6.459983e-002 -9.468332e-001  3.151724e-001
    outer loop
      vertex  3.591997e+000 -3.600921e+000  5.598307e+000
      vertex  3.609318e+000 -3.798898e+000  5.000000e+000
      vertex  3.683486e+000 -3.598018e+000  5.588278e+000
    endloop
  endfacet
  facet normal  3.245839e-001 -9.068732e-001  2.687494e-001
    outer loop
      vertex  3.683486e+000 -3.598018e+000  5.588278e+000
      vertex  3.609318e+000 -3.798898e+000  5.000000e+000
      vertex  4.632473e+000 -3.329426e+000  5.348473e+000
    endloop
  endfacet
  facet normal  2.950834e-001 -8.937889e-001  3.377384e-001
    outer loop
      vertex  4.632473e+000 -3.329426e+000  5.348473e+000
      vertex  3.609318e+000 -3.798898e+000  5.000000e+000
      vertex  4.481229e+000 -3.511038e+000  5.000000e+000
    endloop
  endfacet
  facet normal  7.033482e-001 -7.079849e-001  6.370822e-002
    outer loop
      vertex  4.632473e+000 -3.329426e+000  5.348473e+000
      vertex  4.481229e+000 -3.511038e+000  5.000000e+000
      vertex  5.132624e+000 -2.863909e+000  5.000000e+000
    endloop
  endfacet
  facet normal  9.320078e-001 -3.624381e-001  0.000000e+000
    outer loop
      vertex  5.435007e+000 -1.806508e+000  0.000000e+000
      vertex  5.435007e+000 -1.806508e+000  3.125574e+000
      vertex  4.909561e+000 -3.157689e+000  0.000000e+000
    endloop
  endfacet
  facet normal  9.491830e-001 -3.138154e-001 -2.390689e-002
    outer loop
      vertex  4.909561e+000 -3.157689e+000  0.000000e+000
      vertex  5.435007e+000 -1.806508e+000  3.125574e+000
      vertex  5.132624e+000 -2.863909e+000  5.000000e+000
    endloop
  endfacet
  facet normal  7.047430e-001 -7.093888e-001  1.024051e-002
    outer loop
      vertex  4.909561e+000 -3.157689e+000  0.000000e+000
      vertex  5.132624e+000 -2.863909e+000  5.000000e+000
      vertex  4.481229e+000 -3.511038e+000  5.000000e+000
    endloop
  endfacet
  facet normal  3.135049e-001 -9.495866e-001  0.000000e+000
    outer loop
      vertex  3.609318e+000 -3.798898e+000  5.000000e+000
      vertex  3.609318e+000 -3.798898e+000  0.000000e+000
      vertex  4.481229e+000 -3.511038e+000  5.000000e+000
    endloop
  endfacet
  facet normal  4.421451e-001 -8.965814e-001 -2.548417e-002
    outer loop
      vertex  4.481229e+000 -3.511038e+000  5.000000e+000
      vertex  3.609318e+000 -3.798898e+000  0.000000e+000
      vertex  4.909561e+000 -3.157689e+000  0.000000e+000
    endloop
  endfacet
  facet normal -8.472902e-001 -2.225222e-001  4.822687e-001
    outer loop
      vertex  3.472873e-001  6.483977e-002  7.000206e+000
      vertex  8.030906e-001 -1.439489e+000  7.106891e+000
      vertex  7.364355e+000 -9.888544e-001  1.884220e+001
    endloop
  endfacet
  facet normal -8.603045e-001  0.000000e+000  5.097803e-001
    outer loop
      vertex  7.364355e+000 -9.888544e-001  1.884220e+001
      vertex  7.364355e+000  9.888544e-001  1.884220e+001
      vertex  3.472873e-001  6.483977e-002  7.000206e+000
    endloop
  endfacet
  facet normal -8.441316e-001  2.350695e-001  4.818548e-001
    outer loop
      vertex  3.472873e-001  6.483977e-002  7.000206e+000
      vertex  7.364355e+000  9.888544e-001  1.884220e+001
      vertex  7.758890e-001  1.398306e+000  7.100524e+000
    endloop
  endfacet
  facet normal -1.380464e-002  9.998730e-001  7.970110e-003
    outer loop
      vertex  3.786874e+000  3.198374e+000  6.763046e+000
      vertex  1.000000e+001  3.200000e+000  1.732051e+001
      vertex  3.905678e+000  3.200000e+000  6.764833e+000
    endloop
  endfacet
  facet normal -6.963321e-001 -5.877637e-001  4.118926e-001
    outer loop
      vertex  8.371081e+000 -2.588854e+000  1.826097e+001
      vertex  7.364355e+000 -9.888544e-001  1.884220e+001
      vertex  8.030906e-001 -1.439489e+000  7.106891e+000
    endloop
  endfacet
  facet normal -7.306989e-001 -5.201522e-001  4.421773e-001
    outer loop
      vertex  8.371081e+000 -2.588854e+000  1.826097e+001
      vertex  8.030906e-001 -1.439489e+000  7.106891e+000
      vertex  1.204928e+000 -1.924028e+000  7.200944e+000
    endloop
  endfacet
  facet normal -5.821508e-001 -7.419437e-001  3.325959e-001
    outer loop
      vertex  8.371081e+000 -2.588854e+000  1.826097e+001
      vertex  1.204928e+000 -1.924028e+000  7.200944e+000
      vertex  2.187540e+000 -2.734716e+000  7.112377e+000
    endloop
  endfacet
  facet normal -3.432362e-001 -9.171876e-001  2.023753e-001
    outer loop
      vertex  8.371081e+000 -2.588854e+000  1.826097e+001
      vertex  2.187540e+000 -2.734716e+000  7.112377e+000
      vertex  2.970266e+000 -3.082235e+000  6.864920e+000
    endloop
  endfacet
  facet normal -1.274358e-001 -9.864736e-001  1.031028e-001
    outer loop
      vertex  8.371081e+000 -2.588854e+000  1.826097e+001
      vertex  2.970266e+000 -3.082235e+000  6.864920e+000
      vertex  3.786874e+000 -3.198374e+000  6.763046e+000
    endloop
  endfacet
  facet normal -1.454462e-002 -9.981690e-001  5.871316e-002
    outer loop
      vertex  8.371081e+000 -2.588854e+000  1.826097e+001
      vertex  3.786874e+000 -3.198374e+000  6.763046e+000
      vertex  3.905678e+000 -3.200000e+000  6.764833e+000
    endloop
  endfacet
  facet normal -2.676166e-001 -9.510565e-001  1.545085e-001
    outer loop
      vertex  8.371081e+000 -2.588854e+000  1.826097e+001
      vertex  3.905678e+000 -3.200000e+000  6.764833e+000
      vertex  1.000000e+001 -3.200000e+000  1.732051e+001
    endloop
  endfacet
  facet normal -2.663924e-001  9.510537e-001  1.566270e-001
    outer loop
      vertex  8.371081e+000  2.588854e+000  1.826097e+001
      vertex  1.000000e+001  3.200000e+000  1.732051e+001
      vertex  3.786874e+000  3.198374e+000  6.763046e+000
    endloop
  endfacet
  facet normal -1.543390e-001  9.814697e-001  1.135638e-001
    outer loop
      vertex  8.371081e+000  2.588854e+000  1.826097e+001
      vertex  3.786874e+000  3.198374e+000  6.763046e+000
      vertex  2.779363e+000  3.021766e+000  6.920111e+000
    endloop
  endfacet
  facet normal -4.570638e-001  8.512368e-001  2.578538e-001
    outer loop
      vertex  8.371081e+000  2.588854e+000  1.826097e+001
      vertex  2.779363e+000  3.021766e+000  6.920111e+000
      vertex  1.597895e+000  2.292941e+000  7.231903e+000
    endloop
  endfacet
  facet normal -6.486729e-001  6.590177e-001  3.806824e-001
    outer loop
      vertex  8.371081e+000  2.588854e+000  1.826097e+001
      vertex  1.597895e+000  2.292941e+000  7.231903e+000
      vertex  1.204914e+000  1.924013e+000  7.200942e+000
    endloop
  endfacet
  facet normal -7.337191e-001  5.138731e-001  4.445117e-001
    outer loop
      vertex  8.371081e+000  2.588854e+000  1.826097e+001
      vertex  1.204914e+000  1.924013e+000  7.200942e+000
      vertex  7.758890e-001  1.398306e+000  7.100524e+000
    endloop
  endfacet
  facet normal -6.966284e-001  5.877665e-001  4.113872e-001
    outer loop
      vertex  8.371081e+000  2.588854e+000  1.826097e+001
      vertex  7.758890e-001  1.398306e+000  7.100524e+000
      vertex  7.364355e+000  9.888544e-001  1.884220e+001
    endloop
  endfacet
  facet normal  8.280534e-002 -9.954184e-001 -4.780768e-002
    outer loop
      vertex  3.905678e+000 -3.200000e+000  6.764833e+000
      vertex  4.559384e+000 -3.141490e+000  6.678820e+000
      vertex  1.000000e+001 -3.200000e+000  1.732051e+001
    endloop
  endfacet
  facet normal  7.020139e-001  5.877830e-001 -4.021041e-001
    outer loop
      vertex  1.162892e+001  2.588854e+000  1.638005e+001
      vertex  1.263564e+001  9.888544e-001  1.579882e+001
      vertex  5.810836e+000  1.111698e+000  4.063288e+000
    endloop
  endfacet
  facet normal  7.186935e-001  5.636965e-001 -4.070944e-001
    outer loop
      vertex  1.162892e+001  2.588854e+000  1.638005e+001
      vertex  5.810836e+000  1.111698e+000  4.063288e+000
      vertex  5.692688e+000  2.413120e+000  5.656763e+000
    endloop
  endfacet
  facet normal  5.110093e-001  8.069623e-001 -2.961107e-001
    outer loop
      vertex  1.162892e+001  2.588854e+000  1.638005e+001
      vertex  5.692688e+000  2.413120e+000  5.656763e+000
      vertex  5.462379e+000  2.731237e+000  6.126245e+000
    endloop
  endfacet
  facet normal  3.790267e-001  8.999566e-001 -2.154463e-001
    outer loop
      vertex  1.162892e+001  2.588854e+000  1.638005e+001
      vertex  5.462379e+000  2.731237e+000  6.126245e+000
      vertex  5.025620e+000  3.002455e+000  6.490795e+000
    endloop
  endfacet
  facet normal  1.580604e-001  9.853317e-001 -6.433105e-002
    outer loop
      vertex  1.162892e+001  2.588854e+000  1.638005e+001
      vertex  5.025620e+000  3.002455e+000  6.490795e+000
      vertex  3.905678e+000  3.200000e+000  6.764833e+000
    endloop
  endfacet
  facet normal  2.676166e-001  9.510565e-001 -1.545085e-001
    outer loop
      vertex  1.162892e+001  2.588854e+000  1.638005e+001
      vertex  3.905678e+000  3.200000e+000  6.764833e+000
      vertex  1.000000e+001  3.200000e+000  1.732051e+001
    endloop
  endfacet
  facet normal  8.370438e-001  2.549317e-001 -4.841152e-001
    outer loop
      vertex  5.810836e+000  1.111698e+000  4.063288e+000
      vertex  1.263564e+001  9.888544e-001  1.579882e+001
      vertex  5.724996e+000  5.088660e-001  3.597422e+000
    endloop
  endfacet
  facet normal  8.701285e-001  0.000000e+000 -4.928250e-001
    outer loop
      vertex  5.724996e+000  5.088660e-001  3.597422e+000
      vertex  1.263564e+001  9.888544e-001  1.579882e+001
      vertex  1.263564e+001 -9.888544e-001  1.579882e+001
    endloop
  endfacet
  facet normal  8.717007e-001  5.867184e-002 -4.865135e-001
    outer loop
      vertex  5.724996e+000  5.088660e-001  3.597422e+000
      vertex  1.263564e+001 -9.888544e-001  1.579882e+001
      vertex  5.704159e+000 -1.192527e-001  3.484339e+000
    endloop
  endfacet
  facet normal  8.586015e-001 -1.399636e-001 -4.931671e-001
    outer loop
      vertex  5.704159e+000 -1.192527e-001  3.484339e+000
      vertex  1.263564e+001 -9.888544e-001  1.579882e+001
      vertex  5.754815e+000 -7.771837e-001  3.759256e+000
    endloop
  endfacet
  facet normal  7.036872e-001 -5.877742e-001 -3.991815e-001
    outer loop
      vertex  1.162892e+001 -2.588854e+000  1.638005e+001
      vertex  5.692696e+000 -2.413113e+000  5.656762e+000
      vertex  1.263564e+001 -9.888544e-001  1.579882e+001
    endloop
  endfacet
  facet normal  7.148405e-001 -5.666386e-001 -4.097849e-001
    outer loop
      vertex  1.263564e+001 -9.888544e-001  1.579882e+001
      vertex  5.692696e+000 -2.413113e+000  5.656762e+000
      vertex  5.810837e+000 -1.111696e+000  4.063289e+000
    endloop
  endfacet
  facet normal  8.270963e-001 -2.958404e-001 -4.779019e-001
    outer loop
      vertex  1.263564e+001 -9.888544e-001  1.579882e+001
      vertex  5.810837e+000 -1.111696e+000  4.063289e+000
      vertex  5.754815e+000 -7.771837e-001  3.759256e+000
    endloop
  endfacet
  facet normal  2.731536e-001 -9.509978e-001 -1.448799e-001
    outer loop
      vertex  1.000000e+001 -3.200000e+000  1.732051e+001
      vertex  4.559384e+000 -3.141490e+000  6.678820e+000
      vertex  1.162892e+001 -2.588854e+000  1.638005e+001
    endloop
  endfacet
  facet normal  2.552971e-001 -9.578818e-001 -1.314753e-001
    outer loop
      vertex  1.162892e+001 -2.588854e+000  1.638005e+001
      vertex  4.559384e+000 -3.141490e+000  6.678820e+000
      vertex  5.127483e+000 -2.955736e+000  6.428612e+000
    endloop
  endfacet
  facet normal  4.541473e-001 -8.504948e-001 -2.653463e-001
    outer loop
      vertex  1.162892e+001 -2.588854e+000  1.638005e+001
      vertex  5.127483e+000 -2.955736e+000  6.428612e+000
      vertex  5.692696e+000 -2.413113e+000  5.656762e+000
    endloop
  endfacet
  facet normal  2.043095e-002  2.335269e-001  9.721357e-001
    outer loop
      vertex -1.448889e+001  4.378466e+000  6.000000e+000
      vertex -1.790953e-001  3.126521e+000  6.000000e+000
      vertex -1.448889e+001  4.835980e+000  5.890096e+000
    endloop
  endfacet
  facet normal  6.400158e-003  1.174212e-001  9.930616e-001
    outer loop
      vertex -1.448889e+001  4.835980e+000  5.890096e+000
      vertex -1.790953e-001  3.126521e+000  6.000000e+000
      vertex  3.521350e-001  3.296469e+000  5.976481e+000
    endloop
  endfacet
  facet normal  6.293499e-002  6.492310e-001  7.579830e-001
    outer loop
      vertex -1.448889e+001  4.835980e+000  5.890096e+000
      vertex  3.521350e-001  3.296469e+000  5.976481e+000
      vertex -1.448889e+001  5.193274e+000  5.584065e+000
    endloop
  endfacet
  facet normal  4.704998e-002  5.417502e-001  8.392218e-001
    outer loop
      vertex -1.448889e+001  5.193274e+000  5.584065e+000
      vertex  3.521350e-001  3.296469e+000  5.976481e+000
      vertex  3.591997e+000  3.600922e+000  5.598306e+000
    endloop
  endfacet
  facet normal  8.325738e-002  9.481175e-001  3.068248e-001
    outer loop
      vertex -1.448889e+001  5.193274e+000  5.584065e+000
      vertex  3.591997e+000  3.600922e+000  5.598306e+000
      vertex -1.448889e+001  5.382286e+000  5.000000e+000
    endloop
  endfacet
  facet normal  8.271229e-002  9.454058e-001  3.152243e-001
    outer loop
      vertex -1.448889e+001  5.382286e+000  5.000000e+000
      vertex  3.591997e+000  3.600922e+000  5.598306e+000
      vertex  3.609318e+000  3.798898e+000  5.000000e+000
    endloop
  endfacet
  facet normal  6.460048e-002  9.468333e-001  3.151723e-001
    outer loop
      vertex  3.683486e+000  3.598018e+000  5.588278e+000
      vertex  3.609318e+000  3.798898e+000  5.000000e+000
      vertex  3.591997e+000  3.600922e+000  5.598306e+000
    endloop
  endfacet
  facet normal  3.015194e-001  9.132873e-001  2.738473e-001
    outer loop
      vertex  3.609318e+000  3.798898e+000  5.000000e+000
      vertex  3.683486e+000  3.598018e+000  5.588278e+000
      vertex  4.481224e+000  3.511040e+000  5.000000e+000
    endloop
  endfacet
  facet normal  3.011853e-001  9.135446e-001  2.733562e-001
    outer loop
      vertex  4.481224e+000  3.511040e+000  5.000000e+000
      vertex  3.683486e+000  3.598018e+000  5.588278e+000
      vertex  4.551844e+000  3.373565e+000  5.381628e+000
    endloop
  endfacet
  facet normal  6.993222e-001  7.039385e-001  1.241737e-001
    outer loop
      vertex  4.481224e+000  3.511040e+000  5.000000e+000
      vertex  4.551844e+000  3.373565e+000  5.381628e+000
      vertex  5.132618e+000  2.863918e+000  5.000000e+000
    endloop
  endfacet
  facet normal  4.422888e-001  8.968727e-001  0.000000e+000
    outer loop
      vertex  3.609318e+000  3.798898e+000  0.000000e+000
      vertex  3.609318e+000  3.798898e+000  5.000000e+000
      vertex  4.909561e+000  3.157689e+000  0.000000e+000
    endloop
  endfacet
  facet normal  3.132500e-001  9.488187e-001 -4.021800e-002
    outer loop
      vertex  4.909561e+000  3.157689e+000  0.000000e+000
      vertex  3.609318e+000  3.798898e+000  5.000000e+000
      vertex  4.481224e+000  3.511040e+000  5.000000e+000
    endloop
  endfacet
  facet normal  7.047398e-001  7.093919e-001  1.024029e-002
    outer loop
      vertex  4.909561e+000  3.157689e+000  0.000000e+000
      vertex  4.481224e+000  3.511040e+000  5.000000e+000
      vertex  5.132618e+000  2.863918e+000  5.000000e+000
    endloop
  endfacet
  facet normal  9.491827e-001  3.138164e-001 -2.390639e-002
    outer loop
      vertex  5.132618e+000  2.863918e+000  5.000000e+000
      vertex  5.435007e+000  1.806508e+000  3.125573e+000
      vertex  4.909561e+000  3.157689e+000  0.000000e+000
    endloop
  endfacet
  facet normal  9.320078e-001  3.624381e-001  0.000000e+000
    outer loop
      vertex  4.909561e+000  3.157689e+000  0.000000e+000
      vertex  5.435007e+000  1.806508e+000  3.125573e+000
      vertex  5.435007e+000  1.806508e+000  0.000000e+000
    endloop
  endfacet
  facet normal  1.000000e+000  0.000000e+000  0.000000e+000
    outer loop
      vertex  5.435007e+000  1.806508e+000  0.000000e+000
      vertex  5.435007e+000  1.806508e+000  3.125573e+000
      vertex  5.435007e+000  8.269071e-001  2.610146e+000
    endloop
  endfacet
  facet normal  1.000000e+000  0.000000e+000  0.000000e+000
    outer loop
      vertex  5.435007e+000  1.806508e+000  0.000000e+000
      vertex  5.435007e+000  8.269071e-001  2.610146e+000
      vertex  5.435007e+000 -1.937857e-001  2.485033e+000
    endloop
  endfacet
  facet normal  1.000000e+000  0.000000e+000  0.000000e+000
    outer loop
      vertex  5.435007e+000  1.806508e+000  0.000000e+000
      vertex  5.435007e+000 -1.937857e-001  2.485033e+000
      vertex  5.435007e+000 -1.806508e+000  3.125574e+000
    endloop
  endfacet
  facet normal  1.000000e+000  0.000000e+000  0.000000e+000
    outer loop
      vertex  5.435007e+000  1.806508e+000  0.000000e+000
      vertex  5.435007e+000 -1.806508e+000  3.125574e+000
      vertex  5.435007e+000 -1.806508e+000  0.000000e+000
    endloop
  endfacet
  facet normal -2.346736e-001  1.656345e-001  9.578588e-001
    outer loop
      vertex -1.790953e-001  3.126521e+000  6.000000e+000
      vertex -7.820488e-001  2.272247e+000  6.000000e+000
      vertex  6.481474e-001  2.407764e+000  6.326962e+000
    endloop
  endfacet
  facet normal -2.333262e-001  1.412009e-001  9.620921e-001
    outer loop
      vertex  6.481474e-001  2.407764e+000  6.326962e+000
      vertex -7.820488e-001  2.272247e+000  6.000000e+000
      vertex  1.328865e-001  1.759005e+000  6.297215e+000
    endloop
  endfacet
  facet normal -6.132375e-001  4.575252e-001  6.439025e-001
    outer loop
      vertex  6.481474e-001  2.407764e+000  6.326962e+000
      vertex  1.328865e-001  1.759005e+000  6.297215e+000
      vertex  1.204914e+000  1.924013e+000  7.200942e+000
    endloop
  endfacet
  facet normal -6.289340e-001  3.841570e-001  6.759182e-001
    outer loop
      vertex  1.204914e+000  1.924013e+000  7.200942e+000
      vertex  1.328865e-001  1.759005e+000  6.297215e+000
      vertex  7.758890e-001  1.398306e+000  7.100524e+000
    endloop
  endfacet
  facet normal -2.231356e-001 -1.600483e-001  9.615587e-001
    outer loop
      vertex -7.438195e-001 -2.339170e+000  6.000000e+000
      vertex -1.790778e-001 -3.126520e+000  6.000000e+000
      vertex  1.656386e-001 -1.810230e+000  6.299086e+000
    endloop
  endfacet
  facet normal -2.451720e-001 -1.533055e-001  9.572817e-001
    outer loop
      vertex  1.656386e-001 -1.810230e+000  6.299086e+000
      vertex -1.790778e-001 -3.126520e+000  6.000000e+000
      vertex  6.481494e-001 -2.407756e+000  6.326971e+000
    endloop
  endfacet
  facet normal -5.914719e-001 -4.462821e-001  6.715603e-001
    outer loop
      vertex  1.656386e-001 -1.810230e+000  6.299086e+000
      vertex  6.481494e-001 -2.407756e+000  6.326971e+000
      vertex  8.030906e-001 -1.439489e+000  7.106891e+000
    endloop
  endfacet
  facet normal -6.474397e-001 -4.125494e-001  6.408001e-001
    outer loop
      vertex  8.030906e-001 -1.439489e+000  7.106891e+000
      vertex  6.481494e-001 -2.407756e+000  6.326971e+000
      vertex  1.204928e+000 -1.924028e+000  7.200944e+000
    endloop
  endfacet
  facet normal -2.597989e-001 -6.808011e-002  9.632599e-001
    outer loop
      vertex -1.384408e+000  1.053646e-001  6.000000e+000
      vertex -7.438195e-001 -2.339170e+000  6.000000e+000
      vertex -3.845790e-001  8.196680e-002  6.268008e+000
    endloop
  endfacet
  facet normal -2.774594e-001 -6.493726e-002  9.585402e-001
    outer loop
      vertex -3.845790e-001  8.196680e-002  6.268008e+000
      vertex -7.438195e-001 -2.339170e+000  6.000000e+000
      vertex  1.656386e-001 -1.810230e+000  6.299086e+000
    endloop
  endfacet
  facet normal -6.964563e-001 -1.911572e-001  6.916701e-001
    outer loop
      vertex -3.845790e-001  8.196680e-002  6.268008e+000
      vertex  1.656386e-001 -1.810230e+000  6.299086e+000
      vertex  3.472873e-001  6.483977e-002  7.000206e+000
    endloop
  endfacet
  facet normal -7.321954e-001 -1.751734e-001  6.581825e-001
    outer loop
      vertex  3.472873e-001  6.483977e-002  7.000206e+000
      vertex  1.656386e-001 -1.810230e+000  6.299086e+000
      vertex  8.030906e-001 -1.439489e+000  7.106891e+000
    endloop
  endfacet
  facet normal -2.697838e-001  7.499563e-002  9.599959e-001
    outer loop
      vertex -7.820488e-001  2.272247e+000  6.000000e+000
      vertex -1.384408e+000  1.053646e-001  6.000000e+000
      vertex  1.328865e-001  1.759005e+000  6.297215e+000
    endloop
  endfacet
  facet normal -2.570419e-001  6.251710e-002  9.643760e-001
    outer loop
      vertex  1.328865e-001  1.759005e+000  6.297215e+000
      vertex -1.384408e+000  1.053646e-001  6.000000e+000
      vertex -3.845790e-001  8.196680e-002  6.268008e+000
    endloop
  endfacet
  facet normal -7.154673e-001  2.091544e-001  6.666041e-001
    outer loop
      vertex  1.328865e-001  1.759005e+000  6.297215e+000
      vertex -3.845790e-001  8.196680e-002  6.268008e+000
      vertex  7.758890e-001  1.398306e+000  7.100524e+000
    endloop
  endfacet
  facet normal -6.948743e-001  1.707925e-001  6.985553e-001
    outer loop
      vertex  7.758890e-001  1.398306e+000  7.100524e+000
      vertex -3.845790e-001  8.196680e-002  6.268008e+000
      vertex  3.472873e-001  6.483977e-002  7.000206e+000
    endloop
  endfacet
  facet normal  9.231495e-003  7.387989e-001  6.738628e-001
    outer loop
      vertex  3.591997e+000  3.600922e+000  5.598306e+000
      vertex  3.521350e-001  3.296469e+000  5.976481e+000
      vertex  1.623620e+000  2.913118e+000  6.379355e+000
    endloop
  endfacet
  facet normal -6.924779e-002  3.459466e-001  9.356953e-001
    outer loop
      vertex -1.790953e-001  3.126521e+000  6.000000e+000
      vertex  6.481474e-001  2.407764e+000  6.326962e+000
      vertex  3.521350e-001  3.296469e+000  5.976481e+000
    endloop
  endfacet
  facet normal -1.104586e-001  9.335100e-001  3.411130e-001
    outer loop
      vertex  3.786874e+000  3.198374e+000  6.763046e+000
      vertex  3.591997e+000  3.600922e+000  5.598306e+000
      vertex  2.779363e+000  3.021766e+000  6.920111e+000
    endloop
  endfacet
  facet normal -2.173781e-001  9.361014e-001  2.765153e-001
    outer loop
      vertex  2.779363e+000  3.021766e+000  6.920111e+000
      vertex  3.591997e+000  3.600922e+000  5.598306e+000
      vertex  1.623620e+000  2.913118e+000  6.379355e+000
    endloop
  endfacet
  facet normal -3.290879e-001  7.683244e-001  5.489796e-001
    outer loop
      vertex  2.779363e+000  3.021766e+000  6.920111e+000
      vertex  1.623620e+000  2.913118e+000  6.379355e+000
      vertex  1.597895e+000  2.292941e+000  7.231903e+000
    endloop
  endfacet
  facet normal -5.497512e-001  5.315139e-001  6.444119e-001
    outer loop
      vertex  1.204914e+000  1.924013e+000  7.200942e+000
      vertex  1.597895e+000  2.292941e+000  7.231903e+000
      vertex  6.481474e-001  2.407764e+000  6.326962e+000
    endloop
  endfacet
  facet normal -4.129384e-001  7.423875e-001  5.275818e-001
    outer loop
      vertex  6.481474e-001  2.407764e+000  6.326962e+000
      vertex  1.597895e+000  2.292941e+000  7.231903e+000
      vertex  1.623620e+000  2.913118e+000  6.379355e+000
    endloop
  endfacet
  facet normal -2.050614e-001  2.992097e-001  9.318924e-001
    outer loop
      vertex  6.481474e-001  2.407764e+000  6.326962e+000
      vertex  1.623620e+000  2.913118e+000  6.379355e+000
      vertex  3.521350e-001  3.296469e+000  5.976481e+000
    endloop
  endfacet
  facet normal -1.781381e-002  9.460889e-001  3.234170e-001
    outer loop
      vertex  3.905678e+000  3.200000e+000  6.764833e+000
      vertex  3.683486e+000  3.598018e+000  5.588278e+000
      vertex  3.786874e+000  3.198374e+000  6.763046e+000
    endloop
  endfacet
  facet normal  6.470988e-002  9.464565e-001  3.162794e-001
    outer loop
      vertex  3.786874e+000  3.198374e+000  6.763046e+000
      vertex  3.683486e+000  3.598018e+000  5.588278e+000
      vertex  3.591997e+000  3.600922e+000  5.598306e+000
    endloop
  endfacet
  facet normal  2.983890e-001  9.198021e-001  2.548096e-001
    outer loop
      vertex  3.683486e+000  3.598018e+000  5.588278e+000
      vertex  3.905678e+000  3.200000e+000  6.764833e+000
      vertex  4.551844e+000  3.373565e+000  5.381628e+000
    endloop
  endfacet
  facet normal  2.219561e-001  9.492604e-001  2.228003e-001
    outer loop
      vertex  4.551844e+000  3.373565e+000  5.381628e+000
      vertex  3.905678e+000  3.200000e+000  6.764833e+000
      vertex  5.025620e+000  3.002455e+000  6.490795e+000
    endloop
  endfacet
  facet normal  6.504908e-001  7.591394e-001 -2.385797e-002
    outer loop
      vertex  4.551844e+000  3.373565e+000  5.381628e+000
      vertex  5.025620e+000  3.002455e+000  6.490795e+000
      vertex  5.132618e+000  2.863918e+000  5.000000e+000
    endloop
  endfacet
  facet normal  4.999537e-001  8.649085e-001 -4.449137e-002
    outer loop
      vertex  5.132618e+000  2.863918e+000  5.000000e+000
      vertex  5.025620e+000  3.002455e+000  6.490795e+000
      vertex  5.462379e+000  2.731237e+000  6.126245e+000
    endloop
  endfacet
  facet normal  7.068958e-001  6.961921e-001 -1.249595e-001
    outer loop
      vertex  5.132618e+000  2.863918e+000  5.000000e+000
      vertex  5.462379e+000  2.731237e+000  6.126245e+000
      vertex  5.692688e+000  2.413120e+000  5.656763e+000
    endloop
  endfacet
  facet normal  7.994261e-001  4.929783e-001 -3.433515e-001
    outer loop
      vertex  5.692688e+000  2.413120e+000  5.656763e+000
      vertex  5.810836e+000  1.111698e+000  4.063288e+000
      vertex  5.132618e+000  2.863918e+000  5.000000e+000
    endloop
  endfacet
  facet normal  9.158601e-001  3.944719e-001 -7.478182e-002
    outer loop
      vertex  5.132618e+000  2.863918e+000  5.000000e+000
      vertex  5.810836e+000  1.111698e+000  4.063288e+000
      vertex  5.435007e+000  1.806508e+000  3.125573e+000
    endloop
  endfacet
  facet normal  9.608576e-001  1.789803e-002 -2.764637e-001
    outer loop
      vertex  5.724996e+000  5.088660e-001  3.597422e+000
      vertex  5.704159e+000 -1.192527e-001  3.484339e+000
      vertex  5.435007e+000  8.269071e-001  2.610146e+000
    endloop
  endfacet
  facet normal  9.217626e-001 -8.692969e-002 -3.778845e-001
    outer loop
      vertex  5.435007e+000  8.269071e-001  2.610146e+000
      vertex  5.704159e+000 -1.192527e-001  3.484339e+000
      vertex  5.754815e+000 -7.771837e-001  3.759256e+000
    endloop
  endfacet
  facet normal  9.725140e-001  2.832920e-002 -2.311143e-001
    outer loop
      vertex  5.435007e+000  8.269071e-001  2.610146e+000
      vertex  5.754815e+000 -7.771837e-001  3.759256e+000
      vertex  5.435007e+000 -1.937857e-001  2.485033e+000
    endloop
  endfacet
  facet normal  9.535016e-001 -9.903041e-002 -2.846536e-001
    outer loop
      vertex  5.435007e+000 -1.937857e-001  2.485033e+000
      vertex  5.754815e+000 -7.771837e-001  3.759256e+000
      vertex  5.810837e+000 -1.111696e+000  4.063289e+000
    endloop
  endfacet
  facet normal  9.487233e-001 -1.166849e-001 -2.937836e-001
    outer loop
      vertex  5.435007e+000 -1.937857e-001  2.485033e+000
      vertex  5.810837e+000 -1.111696e+000  4.063289e+000
      vertex  5.435007e+000 -1.806508e+000  3.125574e+000
    endloop
  endfacet
  facet normal  9.629099e-001  6.522091e-002 -2.618219e-001
    outer loop
      vertex  5.724996e+000  5.088660e-001  3.597422e+000
      vertex  5.435007e+000  8.269071e-001  2.610146e+000
      vertex  5.810836e+000  1.111698e+000  4.063288e+000
    endloop
  endfacet
  facet normal  9.507965e-001  1.442624e-001 -2.741797e-001
    outer loop
      vertex  5.810836e+000  1.111698e+000  4.063288e+000
      vertex  5.435007e+000  8.269071e-001  2.610146e+000
      vertex  5.435007e+000  1.806508e+000  3.125573e+000
    endloop
  endfacet
  facet normal  9.434195e-001 -2.876474e-001 -1.649809e-001
    outer loop
      vertex  5.810837e+000 -1.111696e+000  4.063289e+000
      vertex  5.692696e+000 -2.413113e+000  5.656762e+000
      vertex  5.435007e+000 -1.806508e+000  3.125574e+000
    endloop
  endfacet
  facet normal  7.569370e-001 -6.138364e-001 -2.241678e-001
    outer loop
      vertex  5.435007e+000 -1.806508e+000  3.125574e+000
      vertex  5.692696e+000 -2.413113e+000  5.656762e+000
      vertex  5.132624e+000 -2.863909e+000  5.000000e+000
    endloop
  endfacet
  facet normal  6.614079e-001 -7.483320e-001 -5.038612e-002
    outer loop
      vertex  5.132624e+000 -2.863909e+000  5.000000e+000
      vertex  5.692696e+000 -2.413113e+000  5.656762e+000
      vertex  4.632473e+000 -3.329426e+000  5.348473e+000
    endloop
  endfacet
  facet normal  6.604618e-001 -7.496077e-001 -4.334064e-002
    outer loop
      vertex  4.632473e+000 -3.329426e+000  5.348473e+000
      vertex  5.692696e+000 -2.413113e+000  5.656762e+000
      vertex  5.127483e+000 -2.955736e+000  6.428612e+000
    endloop
  endfacet
  facet normal  3.098943e-001 -9.334019e-001  1.809049e-001
    outer loop
      vertex  4.632473e+000 -3.329426e+000  5.348473e+000
      vertex  5.127483e+000 -2.955736e+000  6.428612e+000
      vertex  3.683486e+000 -3.598018e+000  5.588278e+000
    endloop
  endfacet
  facet normal  3.513257e-001 -9.300977e-001  1.071854e-001
    outer loop
      vertex  3.683486e+000 -3.598018e+000  5.588278e+000
      vertex  5.127483e+000 -2.955736e+000  6.428612e+000
      vertex  4.559384e+000 -3.141490e+000  6.678820e+000
    endloop
  endfacet
  facet normal  1.238166e-001 -9.468397e-001  2.969241e-001
    outer loop
      vertex  3.683486e+000 -3.598018e+000  5.588278e+000
      vertex  4.559384e+000 -3.141490e+000  6.678820e+000
      vertex  3.905678e+000 -3.200000e+000  6.764833e+000
    endloop
  endfacet
  facet normal -1.781378e-002 -9.460889e-001  3.234170e-001
    outer loop
      vertex  3.905678e+000 -3.200000e+000  6.764833e+000
      vertex  3.786874e+000 -3.198374e+000  6.763046e+000
      vertex  3.683486e+000 -3.598018e+000  5.588278e+000
    endloop
  endfacet
  facet normal  6.470924e-002 -9.464566e-001  3.162795e-001
    outer loop
      vertex  3.683486e+000 -3.598018e+000  5.588278e+000
      vertex  3.786874e+000 -3.198374e+000  6.763046e+000
      vertex  3.591997e+000 -3.600921e+000  5.598307e+000
    endloop
  endfacet
  facet normal -2.547690e-001 -8.717814e-001  4.184373e-001
    outer loop
      vertex  1.741626e+000 -2.961895e+000  6.367571e+000
      vertex  2.970266e+000 -3.082235e+000  6.864920e+000
      vertex  2.187540e+000 -2.734716e+000  7.112377e+000
    endloop
  endfacet
  facet normal -1.302147e-001 -9.880382e-001  8.261117e-002
    outer loop
      vertex  3.786874e+000 -3.198374e+000  6.763046e+000
      vertex  2.970266e+000 -3.082235e+000  6.864920e+000
      vertex  1.741626e+000 -2.961895e+000  6.367571e+000
    endloop
  endfacet
  facet normal -2.032529e-001 -7.895826e-001  5.790058e-001
    outer loop
      vertex  3.786874e+000 -3.198374e+000  6.763046e+000
      vertex  1.741626e+000 -2.961895e+000  6.367571e+000
      vertex  2.382173e+000 -3.608077e+000  5.711237e+000
    endloop
  endfacet
  facet normal  3.557235e-002 -9.463688e-001  3.211242e-001
    outer loop
      vertex  3.786874e+000 -3.198374e+000  6.763046e+000
      vertex  2.382173e+000 -3.608077e+000  5.711237e+000
      vertex  3.591997e+000 -3.600921e+000  5.598307e+000
    endloop
  endfacet
  facet normal -5.164002e-001 -6.824303e-001  5.173197e-001
    outer loop
      vertex  2.187540e+000 -2.734716e+000  7.112377e+000
      vertex  1.204928e+000 -1.924028e+000  7.200944e+000
      vertex  1.741626e+000 -2.961895e+000  6.367571e+000
    endloop
  endfacet
  facet normal -3.729388e-001 -6.905082e-001  6.197701e-001
    outer loop
      vertex  1.741626e+000 -2.961895e+000  6.367571e+000
      vertex  1.204928e+000 -1.924028e+000  7.200944e+000
      vertex  6.481494e-001 -2.407756e+000  6.326971e+000
    endloop
  endfacet
  facet normal -4.283259e-001 -8.169119e-001  3.862536e-001
    outer loop
      vertex  1.741626e+000 -2.961895e+000  6.367571e+000
      vertex  6.481494e-001 -2.407756e+000  6.326971e+000
      vertex  2.382173e+000 -3.608077e+000  5.711237e+000
    endloop
  endfacet
  facet normal  2.015952e-002 -4.331230e-001  9.011093e-001
    outer loop
      vertex  2.382173e+000 -3.608077e+000  5.711237e+000
      vertex  6.481494e-001 -2.407756e+000  6.326971e+000
      vertex -1.790778e-001 -3.126520e+000  6.000000e+000
    endloop
  endfacet
  facet normal  8.715574e-002 -9.961948e-001  0.000000e+000
    outer loop
      vertex -1.448889e+001 -5.382286e+000  5.000000e+000
      vertex -1.448889e+001 -5.382286e+000  0.000000e+000
      vertex  3.609318e+000 -3.798898e+000  5.000000e+000
    endloop
  endfacet
  facet normal  8.715574e-002 -9.961948e-001  0.000000e+000
    outer loop
      vertex  3.609318e+000 -3.798898e+000  5.000000e+000
      vertex -1.448889e+001 -5.382286e+000  0.000000e+000
      vertex  3.609318e+000 -3.798898e+000  0.000000e+000
    endloop
  endfacet
  facet normal  8.715574e-002  9.961948e-001  0.000000e+000
    outer loop
      vertex -1.448889e+001  5.382286e+000  5.000000e+000
      vertex  3.609318e+000  3.798898e+000  5.000000e+000
      vertex -1.448889e+001  5.382286e+000  0.000000e+000
    endloop
  endfacet
  facet normal  8.715574e-002  9.961948e-001  0.000000e+000
    outer loop
      vertex -1.448889e+001  5.382286e+000  0.000000e+000
      vertex  3.609318e+000  3.798898e+000  5.000000e+000
      vertex  3.609318e+000  3.798898e+000  0.000000e+000
    endloop
  endfacet
endsolid CATIA STL
